<!DOCTYPE svg PUBLIC "-//W3C//DTD SVG 1.1//EN" "http://www.w3.org/Graphics/SVG/1.1/DTD/svg11.dtd">
<!-- Uploaded to: SVG Repo, www.svgrepo.com, Transformed by: SVG Repo Mixer Tools -->
<svg fill="#44e60a" width="64px" height="64px" viewBox="-0.8 -0.8 17.60 17.60" xmlns="http://www.w3.org/2000/svg" stroke="#44e60a" stroke-width="0.304">
<g id="SVGRepo_bgCarrier" stroke-width="0"/>
<g id="SVGRepo_tracerCarrier" stroke-linecap="round" stroke-linejoin="round" stroke="#00ff33" stroke-width="0.032"/>
<g id="SVGRepo_iconCarrier"> <path d="M11.874 9A4.005 4.005 0 0 1 8 12a4.005 4.005 0 0 1-3.874-3h7.748zM0 8c0-4.418 3.59-8 8-8 4.418 0 8 3.59 8 8 0 4.418-3.59 8-8 8-4.418 0-8-3.59-8-8zm2 0c0 3.307 2.686 6 6 6 3.307 0 6-2.686 6-6 0-3.307-2.686-6-6-6-3.307 0-6 2.686-6 6zm3-3h2v2H5V5zm4 0h2v2H9V5z" fill-rule="evenodd"/> </g>
</svg>